<svg height="64" viewBox="0 0 128 128" width="64" xmlns="http://www.w3.org/2000/svg" xmlns:xlink="http://www.w3.org/1999/xlink"><linearGradient id="a" gradientUnits="userSpaceOnUse" x1="0" x2="128" y1="128" y2="0"><stop offset="0" stop-color="#333"/><stop offset="1" stop-color="#5d5d5d"/></linearGradient><path d="m44.30994 18.933624c-2.247299-.01917-4.282025.131809-5.892031.438477-6.440022 1.226671-14.396723 5.98345-18.69007 10.276798-4.293349 4.293348-6.616981 8.72526-8.303653 14.551946-1.6866725 5.826686-3.0412674 18.69994-2.2745979 23.759957.7666687 5.060017 3.8269059 13.057773 5.2069109 15.511114 1.380005 2.453342 1.385668 4.182579 1.233216 7.043032-.414689 7.780781 9.335282 19.574222 9.646488 18.251592 0 0 .159214-2.92776.465881-4.0011.306668-1.07333 1.370905-.60157 2.137574.93177.76667 1.53334 3.212906 3.37079 4.439577 3.37079s3.371454-.91157 4.138124-2.90491c.766669-1.99334.931763-4.13813.931763-4.13813s2.768549-1.08709 3.535219-3.233764c.766669-2.146676.908908-5.97624-.164429-8.276248-1.073337-2.300007-4.294119-3.530003-7.207461-3.836671-2.913344-.306667-9.352245-.756239-11.345585-.602906-1.99334.153334-3.218121.0032-4.138124-2.603455-.920004-2.606675-1.368911-10.740789.164428-14.880804 1.533339-4.140014 2.900359-7.980675 3.973696-8.440677 1.073337-.460001 2.302002 1.699098 2.302002 1.699098l-.465881-4.138124s1.240425-2.007095 3.233766-3.233766c1.993339-1.226671 3.973695-1.37024 3.973695-1.37024l1.233216 4.439577s-.157884-2.774429 1.068787-4.0011c1.22667-1.226671 4.292788-1.057027 5.672792-.137024 1.380005.920003 8.75067 6.447337 12.277348 8.440677 3.526679 1.99334 14.548936 8.117699 30.035656 8.577701 15.486717.460001 32.830943-.931763 32.830943-.931763s-8.28024-1.226111-12.88025-5.672793c-4.600018-4.446682-12.112922-13.949041-12.112922-13.949041s1.07988-1.387879 1.233216-2.767884c.153335-1.380005-1.250194-4.900243-1.863526-5.206911-.613333-.306667-1.068787-1.37024-1.068787-1.37024s4.20928.929108 11.674442 7.344485c-6.065448-7.581809-15.346685-9.810916-15.346685-9.810916 7.985643-5.015675 18.447942-5.841175 35.105542 3.699647 0 0-9.34913-8.435462-20.389167-8.742129-11.040037-.306668-19.155952 3.507813-19.155952 3.507813l-2.164978-1.534668s.168978-.916783-.904359-2.603456c-1.073337-1.686671-6.587685-6.57981-12.414372-9.646488-4.370015-2.300007-12.989554-3.751766-19.731452-3.809266zm28.966868 25.349435c3.383809 0 6.111269 2.72746 6.111269 6.11127 0 3.383809-2.72746 6.138674-6.111269 6.138674s-6.138674-2.754865-6.138674-6.138674c0-3.38381 2.754865-6.11127 6.138674-6.11127z" fill="url(#a)"/></svg>